<svg width="150" height="40" viewBox="0 0 150 40" fill="none" xmlns="http://www.w3.org/2000/svg">
<path d="M29.2236 21.0069C29.7052 19.6952 30.0393 18.3319 30.211 16.9008H26.0355H19.9753H15.806C15.9653 18.3419 16.2814 19.7052 16.739 21.0069H21.1934H24.7413C24.251 22.0377 23.6482 23.0491 22.9459 24.0584C22.1699 25.1722 21.2781 26.2853 20.2775 27.4161C19.1814 28.657 17.964 29.9233 16.6457 31.2435C11.2451 25.989 7.49916 21.5681 7.15817 15.6807C7.04712 13.7724 7.60327 12.1621 8.81126 10.8934C10.4994 9.12297 13.3613 8.10677 16.6667 8.10677C17.2517 8.10677 17.8172 8.14988 18.3711 8.21154C20.1485 8.41011 21.7441 8.91277 23.0182 9.68795C23.6031 10.0436 24.1244 10.4531 24.561 10.9157C25.5794 11.9919 26.1194 13.3129 26.183 14.8478H30.3329C30.2645 12.309 29.3541 10.0351 27.6714 8.2092C27.6412 8.17612 27.6163 8.13994 27.5852 8.10761C26.3835 6.83746 24.8189 5.83598 23.019 5.13699C21.1211 4.40033 18.9608 4 16.6667 4C12.2263 4 8.26513 5.48494 5.79794 8.07369C3.80532 10.1676 2.84359 12.8787 3.02071 15.9163C3.47827 23.795 8.59142 29.269 15.2295 35.6067L16.6884 36.9992L18.1264 35.5835C19.8588 33.8785 21.4831 32.2366 22.9506 30.6054C23.91 29.54 24.8033 28.4792 25.6105 27.4084C27.1634 25.3492 28.4001 23.2493 29.2236 21.0069Z" fill="#CF252B"/>
<path d="M30.9949 16.8485L30.9771 16.9941C30.8163 18.3373 30.504 19.6668 30.0643 20.9554H36.9619C35.3398 24.3717 32.4748 27.5778 28.8664 31.192C27.8457 30.1974 26.8832 29.2329 25.9929 28.283C25.2479 29.2582 24.4042 30.2706 23.4115 31.3744L23.333 31.4599C24.6117 32.807 25.9898 34.1595 27.451 35.5551L28.9114 36.9477L30.3494 35.5321C35.3895 30.5715 39.541 26.1453 41.4451 20.9554C41.9275 19.6436 42.2615 18.2803 42.4324 16.8493H38.2561H30.9949V16.8485Z" fill="#C0C0C2"/>
<path d="M28.1307 7.38777L28.7212 8.1129C28.7771 8.11216 28.8322 8.10756 28.8897 8.10756C32.2169 8.10756 35.0952 9.13135 36.784 10.9165C37.8032 11.9927 38.3431 13.3137 38.4053 14.8485H42.5544C42.4875 12.2629 41.5499 9.94963 39.8082 8.10831C37.3394 5.49801 33.3589 4.00075 28.8897 4.00075C27.2863 4.00075 25.7536 4.20855 24.3242 4.57964C25.7645 5.29475 27.0081 6.19156 28.025 7.26539L28.1307 7.38777Z" fill="#C0C0C2"/>
<path d="M60.017 17.3882C59.607 17.9178 59.0385 18.3188 58.3117 18.5913C57.585 18.8638 56.7596 19 55.8356 19C54.8856 19 54.0446 18.7867 53.3127 18.3599C52.5808 17.9332 52.0149 17.3239 51.6152 16.5322C51.2206 15.7352 51.0156 14.8072 51 13.7481V12.8689C51 11.1722 51.4101 9.84836 52.2304 8.89716C53.0506 7.9409 54.1952 7.46271 55.6643 7.46271C56.9257 7.46271 57.9276 7.77121 58.67 8.3882C59.4123 9.00513 59.8587 9.8946 60.0093 11.0566H58.0781C57.8601 9.70438 57.0685 9.02825 55.7032 9.02825C54.8207 9.02825 54.1485 9.34446 53.6865 9.97686C53.2296 10.6042 52.9934 11.527 52.9778 12.7455V13.6093C52.9778 14.8226 53.2348 15.7661 53.7487 16.4396C54.2678 17.108 54.9868 17.4422 55.9057 17.4422C56.9128 17.4422 57.6291 17.2159 58.0548 16.7635V14.5656H55.7188V13.0848H60.017V17.3882ZM61.6445 14.5964C61.6445 13.7789 61.808 13.0437 62.135 12.3907C62.4621 11.7326 62.9215 11.2288 63.5132 10.8792C64.1051 10.5244 64.7851 10.3471 65.5534 10.3471C66.6902 10.3471 67.6117 10.7095 68.3177 11.4344C69.0289 12.1594 69.413 13.1208 69.4701 14.3188L69.4779 14.7584C69.4779 15.581 69.317 16.3162 68.9951 16.964C68.6785 17.6119 68.2216 18.1131 67.6247 18.4679C67.0329 18.8227 66.3476 19 65.569 19C64.3802 19 63.4276 18.6093 62.7112 17.8278C62 17.0412 61.6445 15.9949 61.6445 14.689V14.5964ZM63.5367 14.7584C63.5367 15.617 63.7157 16.2905 64.0739 16.7789C64.4321 17.2622 64.9304 17.5039 65.569 17.5039C66.2075 17.5039 66.7033 17.2571 67.0562 16.7635C67.4144 16.27 67.5935 15.5476 67.5935 14.5964C67.5935 13.7532 67.4092 13.0848 67.0406 12.5913C66.6773 12.0977 66.1815 11.8509 65.5534 11.8509C64.9357 11.8509 64.4451 12.0951 64.0817 12.5836C63.7183 13.0669 63.5367 13.7918 63.5367 14.7584ZM73.8696 15.3059L74.0876 16.7866L74.4069 15.4525L76.6495 7.61699H77.9106L80.0992 15.4525L80.4105 16.8098L80.6516 15.2982L82.4115 7.61699H83.9144L81.1658 18.8458H79.8032L77.4673 10.6632L77.288 9.80723L77.1088 10.6632L74.6872 18.8458H73.3245L70.5836 7.61699H72.0787L73.8696 15.3059ZM86.9201 18.8458H85.4798V10.5013H86.9201V18.8458ZM85.3631 8.28794C85.3631 8.05658 85.4326 7.86117 85.5729 7.70178C85.7184 7.54244 85.9314 7.46271 86.2114 7.46271C86.4921 7.46271 86.7045 7.54244 86.85 7.70178C86.9954 7.86117 87.0681 8.05658 87.0681 8.28794C87.0681 8.51929 86.9954 8.71211 86.85 8.86633C86.7045 9.02054 86.4921 9.09768 86.2114 9.09768C85.9314 9.09768 85.7184 9.02054 85.5729 8.86633C85.4326 8.71211 85.3631 8.51929 85.3631 8.28794ZM91.187 8.48075V10.5013H92.76V11.6041H91.187V16.7789C91.187 17.1131 91.2571 17.365 91.3975 17.5347C91.5378 17.6992 91.7764 17.7815 92.1138 17.7815C92.2797 17.7815 92.5087 17.7507 92.7989 17.6889V18.8458C92.42 18.9486 92.0513 19 91.6934 19C91.0498 19 90.5644 18.8072 90.2371 18.4216C89.9099 18.036 89.7466 17.4885 89.7466 16.7789V11.6041H88.2125V10.5013H89.7466V8.48075H91.187ZM95.8901 11.5116C96.5286 10.7352 97.3598 10.3471 98.3823 10.3471C100.163 10.3471 101.061 11.3419 101.076 13.3317V18.8458H99.6358V13.3239C99.6307 12.7224 99.4903 12.2777 99.2154 11.9897C98.9456 11.7018 98.522 11.5579 97.946 11.5579C97.4791 11.5579 97.0689 11.6813 96.7155 11.928C96.3628 12.1748 96.0879 12.4987 95.8901 12.8998V18.8458H94.4498V7H95.8901V11.5116ZM111.985 17.3882C111.576 17.9178 111.007 18.3188 110.28 18.5913C109.554 18.8638 108.728 19 107.804 19C106.854 19 106.013 18.7867 105.281 18.3599C104.549 17.9332 103.984 17.3239 103.584 16.5322C103.189 15.7352 102.984 14.8072 102.969 13.7481V12.8689C102.969 11.1722 103.379 9.84836 104.199 8.89716C105.019 7.9409 106.164 7.46271 107.633 7.46271C108.894 7.46271 109.896 7.77121 110.639 8.3882C111.381 9.00513 111.827 9.8946 111.978 11.0566H110.047C109.829 9.70438 109.037 9.02825 107.672 9.02825C106.789 9.02825 106.117 9.34446 105.655 9.97686C105.198 10.6042 104.962 11.527 104.946 12.7455V13.6093C104.946 14.8226 105.203 15.7661 105.717 16.4396C106.237 17.108 106.956 17.4422 107.874 17.4422C108.881 17.4422 109.598 17.2159 110.023 16.7635V14.5656H107.687V13.0848H111.985V17.3882ZM119.072 18.0283C118.516 18.6761 117.727 19 116.704 19C115.791 19 115.098 18.7352 114.625 18.2057C114.158 17.6761 113.924 16.91 113.924 15.9075V10.5013H115.816V15.8843C115.816 16.9434 116.26 17.473 117.148 17.473C118.067 17.473 118.688 17.1466 119.009 16.4936V10.5013H120.901V18.8458H119.118L119.072 18.0283ZM124.841 18.8458H122.949V10.5013H124.841V18.8458ZM122.833 8.33418C122.833 8.04628 122.923 7.80722 123.105 7.61699C123.292 7.42676 123.557 7.33162 123.899 7.33162C124.242 7.33162 124.506 7.42676 124.693 7.61699C124.88 7.80722 124.974 8.04628 124.974 8.33418C124.974 8.61696 124.88 8.8535 124.693 9.04373C124.506 9.22878 124.242 9.32133 123.899 9.32133C123.557 9.32133 123.292 9.22878 123.105 9.04373C122.923 8.8535 122.833 8.61696 122.833 8.33418ZM126.555 14.6118C126.555 13.3265 126.856 12.2957 127.458 11.5193C128.06 10.7378 128.867 10.3471 129.879 10.3471C130.772 10.3471 131.494 10.6555 132.044 11.2725V7H133.936V18.8458H132.223L132.13 17.982C131.564 18.6607 130.809 19 129.864 19C128.878 19 128.078 18.6067 127.466 17.8201C126.858 17.0334 126.555 15.964 126.555 14.6118ZM128.447 14.7738C128.447 15.6222 128.61 16.2854 128.937 16.7635C129.269 17.2365 129.739 17.473 130.347 17.473C131.12 17.473 131.686 17.1311 132.044 16.4473V12.8844C131.696 12.2159 131.136 11.8818 130.362 11.8818C129.75 11.8818 129.277 12.1234 128.945 12.6067C128.612 13.0848 128.447 13.8072 128.447 14.7738ZM139.62 19C138.421 19 137.448 18.6273 136.701 17.8818C135.958 17.1311 135.587 16.1337 135.587 14.8895V14.6581C135.587 13.8252 135.748 13.0823 136.07 12.4293C136.397 11.7712 136.854 11.2597 137.44 10.8946C138.027 10.5296 138.681 10.3471 139.402 10.3471C140.55 10.3471 141.435 10.7095 142.058 11.4344C142.686 12.1594 143 13.1851 143 14.5116V15.2673H137.495C137.552 15.9563 137.783 16.5013 138.188 16.9023C138.598 17.3034 139.112 17.5039 139.73 17.5039C140.596 17.5039 141.303 17.1569 141.847 16.4627L142.867 17.4268C142.531 17.9255 142.079 18.3136 141.512 18.5913C140.952 18.8638 140.322 19 139.62 19ZM139.395 11.8509C138.875 11.8509 138.455 12.0309 138.134 12.3907C137.817 12.7507 137.614 13.2519 137.526 13.8946H141.131V13.7558C141.09 13.1285 140.921 12.6555 140.625 12.3368C140.329 12.0129 139.919 11.8509 139.395 11.8509Z" fill="#BC181E"/>
<path d="M54.5039 26.9258C54.5039 27.6029 54.3594 28.1315 54.0703 28.5117C53.7812 28.8893 53.3776 29.0781 52.8594 29.0781C52.401 29.0781 52.0352 28.9023 51.7617 28.5508L51.7109 29H50.6953V23H51.8242V25.1523C52.0846 24.8477 52.4271 24.6953 52.8516 24.6953C53.3672 24.6953 53.7708 24.8854 54.0625 25.2656C54.3568 25.6432 54.5039 26.1758 54.5039 26.8633V26.9258ZM53.375 26.8438C53.375 26.4167 53.3073 26.1055 53.1719 25.9102C53.0365 25.7122 52.8346 25.6133 52.5664 25.6133C52.207 25.6133 51.9596 25.7604 51.8242 26.0547V27.7227C51.9622 28.0195 52.2122 28.168 52.5742 28.168C52.9388 28.168 53.1784 27.9883 53.293 27.6289C53.3477 27.457 53.375 27.1953 53.375 26.8438ZM56.7344 27.4023L57.5156 24.7734H58.7266L57.0273 29.6562L56.9336 29.8789C56.681 30.431 56.2643 30.707 55.6836 30.707C55.5195 30.707 55.3529 30.6823 55.1836 30.6328V29.7773L55.3555 29.7812C55.569 29.7812 55.7279 29.7487 55.832 29.6836C55.9388 29.6185 56.0221 29.5104 56.082 29.3594L56.2148 29.0117L54.7344 24.7734H55.9492L56.7344 27.4023Z" fill="#2470C9"/>
<path d="M69.083 26.3003H66.252V34H64.3477V26.3003H61.5547V24.7578H69.083V26.3003ZM73.4946 28.8521C73.245 28.8182 73.0249 28.8013 72.8345 28.8013C72.1405 28.8013 71.6855 29.0361 71.4697 29.5059V34H69.6353V27.1318H71.3682L71.4189 27.9507C71.7871 27.3201 72.297 27.0049 72.9487 27.0049C73.1519 27.0049 73.3423 27.0324 73.52 27.0874L73.4946 28.8521ZM78.1729 34C78.0882 33.835 78.0269 33.6297 77.9888 33.3843C77.5444 33.8794 76.9668 34.127 76.2559 34.127C75.583 34.127 75.0244 33.9323 74.5801 33.543C74.14 33.1536 73.9199 32.6628 73.9199 32.0703C73.9199 31.3424 74.1886 30.7839 74.7261 30.3945C75.2677 30.0052 76.0485 29.8084 77.0684 29.8042H77.9126V29.4106C77.9126 29.0933 77.8301 28.8394 77.665 28.6489C77.5042 28.4585 77.2482 28.3633 76.897 28.3633C76.5881 28.3633 76.3447 28.4373 76.167 28.5854C75.9935 28.7336 75.9067 28.9367 75.9067 29.1948H74.0723C74.0723 28.797 74.195 28.4289 74.4404 28.0903C74.6859 27.7518 75.0329 27.4873 75.4814 27.2969C75.93 27.1022 76.4336 27.0049 76.9922 27.0049C77.8385 27.0049 78.5093 27.2186 79.0044 27.646C79.5037 28.0692 79.7534 28.6659 79.7534 29.436V32.4131C79.7576 33.0648 79.8486 33.5578 80.0264 33.8921V34H78.1729ZM76.6558 32.7241C76.9266 32.7241 77.1763 32.6649 77.4048 32.5464C77.6333 32.4237 77.8026 32.2607 77.9126 32.0576V30.877H77.2271C76.3088 30.877 75.82 31.1943 75.7607 31.8291L75.7544 31.937C75.7544 32.1655 75.8348 32.3538 75.9956 32.502C76.1564 32.6501 76.3765 32.7241 76.6558 32.7241ZM83.6318 31.7593L84.9077 27.1318H86.8247L84.5078 34H82.7559L80.439 27.1318H82.356L83.6318 31.7593ZM90.7095 34.127C89.7023 34.127 88.8813 33.818 88.2466 33.2002C87.616 32.5824 87.3008 31.7593 87.3008 30.731V30.5532C87.3008 29.8634 87.4341 29.2477 87.7007 28.7061C87.9673 28.1602 88.3439 27.7412 88.8306 27.4492C89.3215 27.153 89.88 27.0049 90.5063 27.0049C91.4458 27.0049 92.1842 27.3011 92.7217 27.8936C93.2633 28.486 93.5342 29.326 93.5342 30.4136V31.1626H89.1606C89.2199 31.6112 89.3976 31.9709 89.6938 32.2417C89.9943 32.5125 90.373 32.6479 90.8301 32.6479C91.5368 32.6479 92.089 32.3919 92.4868 31.8799L93.3882 32.8892C93.1131 33.2785 92.7407 33.5832 92.271 33.8032C91.8013 34.019 91.2808 34.127 90.7095 34.127ZM90.5 28.4902C90.1361 28.4902 89.8398 28.613 89.6113 28.8584C89.387 29.1038 89.2432 29.4551 89.1797 29.9121H91.7314V29.7661C91.723 29.3599 91.613 29.0467 91.4014 28.8267C91.1898 28.6024 90.8893 28.4902 90.5 28.4902ZM96.5176 34H94.6768V24.25H96.5176V34ZM99.9707 34H98.1299V27.1318H99.9707V34ZM98.022 25.3545C98.022 25.0794 98.113 24.853 98.2949 24.6753C98.4811 24.4976 98.7329 24.4087 99.0503 24.4087C99.3634 24.4087 99.6131 24.4976 99.7993 24.6753C99.9855 24.853 100.079 25.0794 100.079 25.3545C100.079 25.6338 99.9834 25.8623 99.793 26.04C99.6068 26.2178 99.3592 26.3066 99.0503 26.3066C98.7414 26.3066 98.4917 26.2178 98.3013 26.04C98.1151 25.8623 98.022 25.6338 98.022 25.3545ZM104.649 34.127C103.642 34.127 102.821 33.818 102.186 33.2002C101.556 32.5824 101.24 31.7593 101.24 30.731V30.5532C101.24 29.8634 101.374 29.2477 101.64 28.7061C101.907 28.1602 102.283 27.7412 102.77 27.4492C103.261 27.153 103.819 27.0049 104.446 27.0049C105.385 27.0049 106.124 27.3011 106.661 27.8936C107.203 28.486 107.474 29.326 107.474 30.4136V31.1626H103.1C103.159 31.6112 103.337 31.9709 103.633 32.2417C103.934 32.5125 104.312 32.6479 104.77 32.6479C105.476 32.6479 106.028 32.3919 106.426 31.8799L107.328 32.8892C107.053 33.2785 106.68 33.5832 106.21 33.8032C105.741 34.019 105.22 34.127 104.649 34.127ZM104.439 28.4902C104.076 28.4902 103.779 28.613 103.551 28.8584C103.326 29.1038 103.183 29.4551 103.119 29.9121H105.671V29.7661C105.662 29.3599 105.552 29.0467 105.341 28.8267C105.129 28.6024 104.829 28.4902 104.439 28.4902ZM110.209 27.1318L110.267 27.9253C110.757 27.3117 111.416 27.0049 112.241 27.0049C112.969 27.0049 113.51 27.2186 113.866 27.646C114.221 28.0734 114.403 28.7124 114.412 29.563V34H112.577V29.6074C112.577 29.2181 112.493 28.9367 112.323 28.7632C112.154 28.5854 111.873 28.4966 111.479 28.4966C110.963 28.4966 110.576 28.7166 110.317 29.1567V34H108.483V27.1318H110.209ZM118.665 32.6479C119.003 32.6479 119.278 32.5549 119.49 32.3687C119.701 32.1825 119.811 31.9349 119.82 31.626H121.54C121.536 32.0915 121.409 32.5189 121.159 32.9082C120.91 33.2933 120.567 33.5938 120.131 33.8096C119.699 34.0212 119.221 34.127 118.696 34.127C117.715 34.127 116.94 33.8159 116.373 33.1938C115.806 32.5675 115.522 31.7043 115.522 30.604V30.4834C115.522 29.4255 115.804 28.5812 116.367 27.9507C116.93 27.3201 117.702 27.0049 118.684 27.0049C119.543 27.0049 120.23 27.2503 120.747 27.7412C121.267 28.2279 121.532 28.8774 121.54 29.6899H119.82C119.811 29.3345 119.701 29.0467 119.49 28.8267C119.278 28.6024 118.999 28.4902 118.652 28.4902C118.224 28.4902 117.901 28.6468 117.681 28.96C117.465 29.2689 117.357 29.7725 117.357 30.4707V30.6611C117.357 31.3678 117.465 31.8757 117.681 32.1846C117.896 32.4935 118.224 32.6479 118.665 32.6479ZM125.749 34.127C124.741 34.127 123.92 33.818 123.286 33.2002C122.655 32.5824 122.34 31.7593 122.34 30.731V30.5532C122.34 29.8634 122.473 29.2477 122.74 28.7061C123.006 28.1602 123.383 27.7412 123.87 27.4492C124.361 27.153 124.919 27.0049 125.545 27.0049C126.485 27.0049 127.223 27.3011 127.761 27.8936C128.302 28.486 128.573 29.326 128.573 30.4136V31.1626H124.2C124.259 31.6112 124.437 31.9709 124.733 32.2417C125.033 32.5125 125.412 32.6479 125.869 32.6479C126.576 32.6479 127.128 32.3919 127.526 31.8799L128.427 32.8892C128.152 33.2785 127.78 33.5832 127.31 33.8032C126.84 34.019 126.32 34.127 125.749 34.127ZM125.539 28.4902C125.175 28.4902 124.879 28.613 124.65 28.8584C124.426 29.1038 124.282 29.4551 124.219 29.9121H126.771V29.7661C126.762 29.3599 126.652 29.0467 126.44 28.8267C126.229 28.6024 125.928 28.4902 125.539 28.4902Z" fill="#000102"/>
<path d="M129.716 33.0986C129.716 32.8066 129.813 32.5697 130.008 32.3877C130.207 32.2057 130.454 32.1147 130.75 32.1147C131.051 32.1147 131.299 32.2057 131.493 32.3877C131.692 32.5697 131.792 32.8066 131.792 33.0986C131.792 33.3864 131.694 33.6213 131.5 33.8032C131.305 33.981 131.055 34.0698 130.75 34.0698C130.45 34.0698 130.202 33.981 130.008 33.8032C129.813 33.6213 129.716 33.3864 129.716 33.0986Z" fill="#2470C9"/>
</svg>
